<mxfile host="app.diagrams.net" modified="2023-11-18T09:50:21.094Z" agent="Mozilla/5.0 (Macintosh; Intel Mac OS X 10_15_7) AppleWebKit/605.1.15 (KHTML, like Gecko) Version/17.1.1 Safari/605.1.15" version="22.1.3" etag="ufAg2n2IuC8zATYf_a_Y" type="github">
  <diagram name="Pagina-1" id="ME3jqVO54A_Lx-xxEPxS">
    <mxGraphModel>
      <root>
        <mxCell id="0" />
        <mxCell id="1" parent="0" />
      </root>
    </mxGraphModel>
  </diagram>
</mxfile>
